<?xml version="1.0" encoding="utf-8"?>
<!-- Generator: Adobe Illustrator 16.0.3, SVG Export Plug-In . SVG Version: 6.00 Build 0)  -->
<!DOCTYPE svg PUBLIC "-//W3C//DTD SVG 1.1//EN" "http://www.w3.org/Graphics/SVG/1.1/DTD/svg11.dtd">
<svg version="1.1" id="Orthodox" xmlns="http://www.w3.org/2000/svg" xmlns:xlink="http://www.w3.org/1999/xlink" x="0px" y="0px"
	 width="808px" height="944px" viewBox="0 0 808 944" enable-background="new 0 0 808 944" xml:space="preserve">
<g opacity="0.1">
	<path fill="#1D1D1B" d="M479.191,123.452L101.613,501.031c-4.467,4.467-4.467,11.715,0,16.182l237.334,237.335
		c4.467,4.467,11.715,4.467,16.182,0l377.579-377.579c4.467-4.467,4.466-11.715-0.001-16.181L495.373,123.453
		C490.905,118.986,483.658,118.986,479.191,123.452z M460.312,228.635L206.795,482.151l-26.97-26.969l253.517-253.517
		L460.312,228.635z M402.858,598.939l174.235-174.235l60.408,15.107L417.967,659.347L402.858,598.939z M708.435,368.879
		l-52.054,52.054l-80.014-20.006c-0.47-0.111-0.912-0.005-1.376-0.068c-0.769-0.095-1.506-0.158-2.27-0.101
		c-0.765,0.058-1.46,0.227-2.171,0.422c-0.689,0.195-1.327,0.4-1.97,0.705c-0.732,0.364-1.363,0.827-2.012,1.338
		c-0.337,0.274-0.759,0.4-1.075,0.717L382.1,587.334c-0.332,0.332-0.463,0.759-0.743,1.122c-0.49,0.617-0.927,1.222-1.28,1.923
		c-0.332,0.669-0.553,1.343-0.748,2.055c-0.189,0.694-0.348,1.359-0.406,2.09c-0.063,0.801,0.011,1.56,0.111,2.355
		c0.052,0.442-0.053,0.874,0.058,1.322l20.006,80.015l-52.06,52.06L125.886,509.122l37.758-37.758l35.061,35.061
		c4.467,4.467,11.715,4.467,16.182,0l269.699-269.699c4.467-4.467,4.467-11.715,0-16.183l-35.061-35.061l37.757-37.757
		L708.435,368.879z"/>
	<path fill="#1D1D1B" d="M270.174,486.197c-24.536,24.536-24.536,64.464,0,89c24.537,24.537,64.465,24.536,89.001,0
		s24.536-64.464,0-89C334.639,461.661,294.71,461.661,270.174,486.197z M345.69,561.713c-17.104,17.104-44.927,17.104-62.031,0
		c-17.104-17.104-17.104-44.927,0-62.03s44.927-17.104,62.031,0C362.793,516.786,362.793,544.609,345.69,561.713z"/>
	<path fill="#1D1D1B" d="M463.009,290.666c-25.284,25.285-25.279,66.419,0,91.698c25.278,25.279,66.413,25.285,91.697,0
		c25.285-25.284,25.279-66.419,0-91.698S488.293,265.381,463.009,290.666z M538.524,366.182c-16.361,16.361-42.973,16.361-59.334,0
		c-16.36-16.361-16.36-42.973,0.001-59.334c16.36-16.361,42.972-16.361,59.333,0C554.886,323.208,554.886,349.821,538.524,366.182z"
		/>
</g>
<linearGradient id="SVGID_1_" gradientUnits="userSpaceOnUse" x1="482.29" y1="699.5186" x2="323.7095" y2="146.4824">
	<stop  offset="0" style="stop-color:#FF43D1"/>
	<stop  offset="1" style="stop-color:#F2871F"/>
</linearGradient>
<path fill="url(#SVGID_1_)" d="M465.031,107.453L87.452,485.032c-4.467,4.466-4.466,11.715,0,16.181l237.335,237.336
	c4.466,4.467,11.714,4.467,16.181,0l377.579-377.58c4.467-4.467,4.467-11.714,0-16.181L481.213,107.453
	C476.745,102.986,469.498,102.986,465.031,107.453z M446.15,212.636L192.635,466.152l-26.97-26.97l253.517-253.517L446.15,212.636z
	 M388.694,582.944l174.239-174.24l60.407,15.107l-219.54,219.542L388.694,582.944z M694.274,352.879l-52.054,52.053l-80.015-20.005
	c-0.473-0.117-0.917-0.01-1.391-0.063c-0.752-0.1-1.475-0.169-2.239-0.111c-0.779,0.064-1.5,0.227-2.238,0.438
	c-0.651,0.189-1.27,0.374-1.89,0.679c-0.765,0.375-1.423,0.854-2.087,1.391c-0.326,0.264-0.722,0.373-1.027,0.68L367.939,571.335
	c-0.338,0.337-0.464,0.758-0.737,1.116c-0.496,0.622-0.928,1.222-1.28,1.923c-0.337,0.674-0.553,1.343-0.759,2.064
	c-0.189,0.695-0.338,1.349-0.4,2.086c-0.063,0.801,0.005,1.565,0.115,2.35c0.049,0.447-0.053,0.874,0.06,1.321l20.006,80.014
	l-52.065,52.065L111.726,493.122l37.758-37.758l35.061,35.061c4.466,4.467,11.715,4.467,16.181,0l269.699-269.699
	c4.466-4.466,4.466-11.715,0-16.181l-35.061-35.061l37.758-37.758L694.274,352.879z M254.666,468.85
	c-25.284,25.283-25.279,66.418,0,91.697c25.279,25.279,66.414,25.284,91.698,0c25.285-25.285,25.278-66.418,0-91.697
	C321.084,443.57,279.95,443.565,254.666,468.85z M330.182,544.365c-16.361,16.361-42.973,16.361-59.333,0
	c-16.361-16.361-16.361-42.973,0-59.333c16.361-16.361,42.973-16.362,59.333,0C346.542,501.393,346.542,528.004,330.182,544.365z
	 M448.849,274.667c-25.284,25.285-25.278,66.418,0,91.697c25.277,25.279,66.414,25.284,91.698,0
	c25.284-25.284,25.277-66.418,0-91.697C515.268,249.388,474.134,249.383,448.849,274.667z M524.363,350.182
	c-16.36,16.361-42.971,16.361-59.332,0c-16.362-16.362-16.362-42.973,0-59.334c16.359-16.361,42.972-16.361,59.332,0
	C540.726,307.209,540.725,333.821,524.363,350.182z"/>
<g>
	<path fill="#9B9B9B" d="M80.598,928.128c-6.977,0-12.497-1.381-16.56-4.141c-4.065-2.76-6.095-6.479-6.095-11.155
		c0-2.454,0.728-4.829,2.185-7.13c1.456-2.3,3.45-4.37,5.98-6.21v-0.46c-1.38-0.843-2.53-1.992-3.45-3.45
		c-0.92-1.455-1.38-3.257-1.38-5.404c0-2.453,0.69-4.543,2.07-6.268c1.38-1.726,2.683-3.008,3.91-3.853v-0.46
		c-1.765-1.533-3.354-3.603-4.772-6.21c-1.419-2.605-2.127-5.596-2.127-8.97c0-2.836,0.498-5.443,1.495-7.82
		c0.995-2.376,2.375-4.428,4.14-6.152c1.763-1.726,3.833-3.065,6.21-4.025c2.375-0.958,4.905-1.438,7.59-1.438
		c1.533,0,2.913,0.135,4.14,0.402c1.225,0.27,2.26,0.595,3.105,0.978h18.745v4.255h-12.88c1.763,1.535,3.22,3.508,4.37,5.923
		s1.725,5.08,1.725,7.992c0,2.838-0.5,5.444-1.495,7.82c-0.997,2.377-2.357,4.428-4.083,6.152c-1.725,1.726-3.757,3.067-6.095,4.025
		c-2.339,0.959-4.85,1.438-7.532,1.438c-1.535,0-3.125-0.19-4.772-0.575c-1.649-0.383-3.125-0.958-4.428-1.725
		c-1.227,0.997-2.282,2.109-3.163,3.335c-0.882,1.227-1.322,2.76-1.322,4.6c0,1.994,0.728,3.7,2.185,5.117
		c1.456,1.42,4.255,2.128,8.395,2.128h11.845c6.21,0,10.791,1.017,13.743,3.047c2.951,2.031,4.428,5.233,4.428,9.603
		c0,2.376-0.615,4.695-1.84,6.958c-1.227,2.261-2.972,4.255-5.232,5.979c-2.262,1.726-5.002,3.105-8.223,4.141
		C88.188,927.61,84.584,928.128,80.598,928.128z M81.173,923.987c3.065,0,5.865-0.402,8.395-1.207c2.53-0.806,4.675-1.86,6.44-3.163
		c1.763-1.305,3.123-2.779,4.083-4.427c0.958-1.65,1.438-3.355,1.438-5.118c0-3.067-1.092-5.232-3.277-6.497
		c-2.185-1.266-5.348-1.897-9.488-1.897H76.918c-0.615,0-1.553-0.058-2.817-0.173c-1.265-0.115-2.627-0.363-4.083-0.747
		c-2.53,1.763-4.37,3.641-5.52,5.635c-1.15,1.992-1.725,3.985-1.725,5.979c0,3.45,1.59,6.248,4.772,8.396
		C70.727,922.913,75.269,923.987,81.173,923.987z M79.793,879.942c1.916,0,3.737-0.363,5.462-1.093
		c1.725-0.728,3.238-1.782,4.542-3.162c1.303-1.38,2.338-3.027,3.105-4.945c0.766-1.915,1.15-4.024,1.15-6.324
		c0-2.301-0.384-4.408-1.15-6.325c-0.767-1.916-1.782-3.525-3.047-4.83c-1.265-1.303-2.78-2.318-4.542-3.048
		c-1.765-0.728-3.604-1.093-5.52-1.093c-1.995,0-3.853,0.365-5.578,1.093c-1.725,0.729-3.24,1.745-4.542,3.048
		c-1.305,1.305-2.339,2.895-3.105,4.772c-0.767,1.879-1.15,4.007-1.15,6.383c0,2.3,0.383,4.409,1.15,6.324
		c0.766,1.918,1.82,3.565,3.163,4.945c1.34,1.38,2.875,2.435,4.6,3.162C76.056,879.579,77.876,879.942,79.793,879.942z"/>
	<path fill="#9B9B9B" d="M121.193,833.022c-1.305,0-2.397-0.421-3.278-1.265c-0.882-0.843-1.322-1.916-1.322-3.221
		c0-1.455,0.44-2.587,1.322-3.393c0.881-0.805,1.973-1.207,3.278-1.207c1.303,0,2.395,0.402,3.277,1.207
		c0.88,0.806,1.323,1.938,1.323,3.393c0,1.305-0.442,2.378-1.323,3.221C123.588,832.602,122.496,833.022,121.193,833.022z
		 M118.548,901.563v-55.2h5.06v55.2H118.548z"/>
	<path fill="#9B9B9B" d="M159.947,902.942c-2.685,0-4.907-0.402-6.67-1.207c-1.765-0.806-3.182-1.936-4.255-3.393
		c-1.075-1.456-1.822-3.221-2.243-5.29c-0.422-2.07-0.632-4.331-0.632-6.785v-35.535h-8.625v-3.91l8.74-0.46l0.69-15.984h4.37
		v15.984h15.985v4.37h-15.985v35.995c0,1.765,0.133,3.354,0.402,4.772c0.268,1.42,0.748,2.645,1.438,3.68s1.628,1.84,2.818,2.415
		c1.188,0.575,2.74,0.862,4.657,0.862c1.073,0,2.243-0.172,3.507-0.517c1.265-0.346,2.396-0.748,3.393-1.208l1.38,4.14
		c-1.61,0.615-3.22,1.111-4.83,1.495C162.477,902.75,161.097,902.942,159.947,902.942z"/>
	<path fill="#9B9B9B" d="M184.9,902.942c-1.304,0-2.455-0.46-3.45-1.38c-0.998-0.92-1.495-2.185-1.495-3.795
		c0-1.686,0.498-2.99,1.495-3.91c0.995-0.92,2.146-1.38,3.45-1.38c1.303,0,2.433,0.46,3.393,1.38c0.958,0.92,1.438,2.225,1.438,3.91
		c0,1.61-0.48,2.875-1.438,3.795C187.333,902.482,186.203,902.942,184.9,902.942z"/>
	<path fill="#9B9B9B" d="M210.66,833.022c-1.305,0-2.397-0.421-3.278-1.265c-0.882-0.843-1.322-1.916-1.322-3.221
		c0-1.455,0.44-2.587,1.322-3.393c0.881-0.805,1.973-1.207,3.278-1.207c1.303,0,2.395,0.402,3.277,1.207
		c0.88,0.806,1.323,1.938,1.323,3.393c0,1.305-0.442,2.378-1.323,3.221C213.055,832.602,211.962,833.022,210.66,833.022z
		 M208.015,901.563v-55.2h5.06v55.2H208.015z"/>
	<path fill="#9B9B9B" d="M254.474,902.942c-3.297,0-6.44-0.652-9.43-1.955c-2.99-1.303-5.617-3.181-7.877-5.635
		c-2.262-2.453-4.064-5.463-5.405-9.027c-1.342-3.565-2.013-7.647-2.013-12.248c0-4.6,0.67-8.72,2.013-12.362
		c1.34-3.641,3.143-6.688,5.405-9.143c2.261-2.452,4.888-4.33,7.877-5.635c2.99-1.303,6.133-1.955,9.43-1.955
		c3.295,0,6.458,0.652,9.487,1.955c3.028,1.305,5.673,3.183,7.935,5.635c2.261,2.455,4.063,5.502,5.405,9.143
		c1.34,3.643,2.012,7.763,2.012,12.362c0,4.601-0.672,8.683-2.012,12.248c-1.342,3.564-3.145,6.574-5.405,9.027
		c-2.262,2.454-4.907,4.332-7.935,5.635C260.932,902.29,257.769,902.942,254.474,902.942z M254.474,898.457
		c2.76,0,5.348-0.593,7.762-1.782c2.415-1.188,4.485-2.855,6.21-5.002c1.725-2.146,3.085-4.716,4.082-7.705
		c0.996-2.99,1.495-6.286,1.495-9.891c0-3.68-0.5-7.015-1.495-10.005c-0.997-2.99-2.357-5.577-4.082-7.763
		c-1.725-2.185-3.795-3.87-6.21-5.06c-2.415-1.188-5.002-1.782-7.762-1.782c-2.76,0-5.33,0.595-7.705,1.782
		c-2.377,1.189-4.428,2.875-6.152,5.06c-1.725,2.186-3.087,4.772-4.083,7.763c-0.998,2.99-1.495,6.325-1.495,10.005
		c0,3.604,0.498,6.9,1.495,9.891c0.995,2.989,2.357,5.56,4.083,7.705c1.725,2.146,3.775,3.814,6.152,5.002
		C249.144,897.864,251.713,898.457,254.474,898.457z"/>
	<path fill="#9B9B9B" d="M286.327,919.963l35.075-100.051h4.37l-35.075,100.051H286.327z"/>
	<path fill="#9B9B9B" d="M356.707,902.942c-3.757,0-6.958-0.557-9.603-1.667c-2.645-1.111-4.83-2.703-6.555-4.772
		c-1.725-2.07-2.99-4.543-3.795-7.418c-0.805-2.875-1.208-6.075-1.208-9.603v-20.01h-7.59v-14.72l8.74-0.69l2.3-14.95h16.33v14.95
		h13.11v15.41h-13.11v19.665c0,3.22,0.69,5.425,2.07,6.612c1.38,1.189,2.99,1.782,4.83,1.782c0.92,0,1.82-0.095,2.703-0.287
		c0.88-0.19,1.667-0.402,2.357-0.633l2.99,14.26c-1.535,0.46-3.375,0.921-5.52,1.381
		C362.609,902.713,359.927,902.942,356.707,902.942z"/>
	<path fill="#9B9B9B" d="M391.667,902.942c-2.685,0-5.1-0.479-7.245-1.438c-2.147-0.958-3.967-2.242-5.462-3.853
		c-1.495-1.609-2.627-3.487-3.393-5.635c-0.767-2.146-1.15-4.408-1.15-6.785c0-5.979,2.453-10.675,7.36-14.088
		c4.905-3.41,12.88-5.692,23.92-6.842c-0.46-3.985-3.145-5.98-8.05-5.98c-2.07,0-4.255,0.402-6.555,1.208
		c-2.3,0.805-4.945,2.013-7.935,3.622l-6.9-12.88c4.063-2.453,8.165-4.33,12.305-5.635c4.14-1.303,8.47-1.955,12.995-1.955
		c7.435,0,13.283,2.127,17.539,6.383c4.254,4.255,6.381,11.097,6.381,20.527v31.97h-16.1l-1.379-5.52h-0.461
		c-2.299,2.069-4.735,3.737-7.302,5.002C397.666,902.31,394.81,902.942,391.667,902.942z M398.567,887.763
		c1.61,0,2.932-0.363,3.967-1.093c1.035-0.728,2.088-1.667,3.163-2.817v-7.82c-4.755,0.69-8.013,1.726-9.775,3.105
		c-1.765,1.38-2.645,2.875-2.645,4.484C393.277,886.383,395.04,887.763,398.567,887.763z"/>
	<path fill="#9B9B9B" d="M438.357,921.803v-77.74h16.1l1.381,5.29h0.459c2.146-1.993,4.561-3.603,7.246-4.83
		c2.682-1.226,5.48-1.84,8.395-1.84c3.373,0,6.439,0.689,9.199,2.07c2.76,1.38,5.117,3.335,7.072,5.864
		c1.955,2.53,3.451,5.598,4.486,9.2c1.035,3.604,1.551,7.63,1.551,12.075c0,4.984-0.672,9.393-2.012,13.225
		c-1.342,3.835-3.125,7.073-5.348,9.718c-2.225,2.646-4.771,4.657-7.646,6.037c-2.875,1.381-5.848,2.07-8.914,2.07
		c-4.754,0-9.047-1.915-12.879-5.75l0.689,8.74v15.87H438.357z M465.496,886.843c2.301,0,4.293-1.073,5.98-3.221
		c1.686-2.146,2.531-5.979,2.531-11.5c0-4.752-0.672-8.165-2.014-10.234c-1.342-2.07-3.354-3.105-6.037-3.105
		c-1.535,0-2.895,0.308-4.082,0.92c-1.189,0.615-2.436,1.688-3.738,3.221v21.159c1.15,1.075,2.338,1.803,3.564,2.186
		C462.928,886.652,464.193,886.843,465.496,886.843z"/>
	<path fill="#9B9B9B" d="M531.734,902.942c-4.217,0-8.127-0.672-11.729-2.013c-3.605-1.34-6.729-3.295-9.373-5.864
		c-2.645-2.568-4.734-5.73-6.268-9.488c-1.535-3.755-2.301-8.01-2.301-12.765c0-4.676,0.785-8.873,2.357-12.593
		c1.572-3.718,3.641-6.88,6.211-9.487c2.568-2.605,5.5-4.6,8.797-5.979c3.297-1.381,6.709-2.07,10.236-2.07
		c4.215,0,7.895,0.729,11.039,2.185c3.143,1.458,5.75,3.45,7.82,5.98s3.623,5.482,4.658,8.854c1.033,3.375,1.551,6.978,1.551,10.811
		c0,1.765-0.096,3.412-0.287,4.944c-0.191,1.535-0.365,2.646-0.518,3.336h-32.775c0.922,3.449,2.568,5.847,4.945,7.188
		c2.377,1.342,5.176,2.012,8.396,2.012c1.992,0,3.928-0.287,5.807-0.862c1.877-0.575,3.852-1.438,5.922-2.587l6.441,11.729
		c-3.145,2.225-6.613,3.892-10.408,5.003C538.463,902.386,534.955,902.942,531.734,902.942z M520.926,865.912h17.02
		c0-2.223-0.557-4.157-1.668-5.807c-1.111-1.648-3.162-2.473-6.152-2.473c-2.225,0-4.16,0.652-5.807,1.955
		C522.668,860.892,521.537,863,520.926,865.912z"/>
	<path fill="#9B9B9B" d="M565.082,879.253v-13.801h28.98v13.801H565.082z"/>
	<path fill="#9B9B9B" d="M631.783,902.942c-4.064,0-7.859-0.672-11.385-2.013c-3.527-1.34-6.596-3.295-9.201-5.864
		c-2.607-2.568-4.656-5.73-6.152-9.488c-1.494-3.755-2.242-8.01-2.242-12.765c0-4.753,0.842-9.008,2.529-12.765
		c1.686-3.756,3.949-6.918,6.785-9.488c2.836-2.567,6.113-4.522,9.832-5.864c3.719-1.341,7.609-2.013,11.674-2.013
		c3.449,0,6.555,0.537,9.314,1.61c2.76,1.074,5.25,2.529,7.475,4.369l-9.199,12.65c-1.305-1.072-2.436-1.801-3.393-2.185
		c-0.959-0.383-1.975-0.575-3.047-0.575c-3.682,0-6.557,1.284-8.625,3.853c-2.07,2.569-3.105,6.037-3.105,10.407
		s1.053,7.84,3.162,10.407c2.107,2.569,4.732,3.853,7.877,3.853c1.611,0,3.201-0.345,4.773-1.035c1.57-0.689,3.047-1.57,4.428-2.645
		l7.59,12.88c-2.914,2.53-6.078,4.274-9.488,5.232C637.973,902.463,634.773,902.942,631.783,902.942z"/>
	<path fill="#9B9B9B" d="M677.781,902.942c-3.68,0-7.572-0.729-11.674-2.185c-4.102-1.456-7.646-3.411-10.637-5.865l8.74-12.19
		c5.213,3.835,9.891,5.75,14.029,5.75c2.07,0,3.545-0.287,4.428-0.862c0.881-0.575,1.322-1.438,1.322-2.587
		c0-0.766-0.307-1.438-0.92-2.013s-1.438-1.11-2.473-1.61c-1.035-0.498-2.203-0.978-3.506-1.438c-1.305-0.46-2.686-0.995-4.141-1.61
		c-1.688-0.689-3.393-1.513-5.117-2.472c-1.727-0.958-3.277-2.128-4.658-3.508s-2.512-2.971-3.393-4.772
		c-0.883-1.801-1.322-3.891-1.322-6.268c0-2.836,0.555-5.405,1.668-7.705c1.109-2.3,2.662-4.255,4.656-5.865
		c1.994-1.609,4.389-2.854,7.188-3.737c2.799-0.88,5.883-1.322,9.258-1.322c4.754,0,8.836,0.787,12.248,2.357
		c3.41,1.572,6.383,3.317,8.912,5.232l-8.74,11.73c-2.07-1.533-4.102-2.721-6.094-3.565c-1.996-0.843-3.873-1.265-5.637-1.265
		c-3.373,0-5.059,1.074-5.059,3.22c0,0.768,0.287,1.42,0.861,1.955c0.576,0.537,1.361,1.035,2.357,1.495s2.146,0.901,3.451,1.322
		c1.303,0.422,2.682,0.902,4.139,1.438c1.686,0.614,3.412,1.38,5.176,2.3s3.354,2.052,4.773,3.393
		c1.416,1.343,2.566,2.952,3.449,4.83c0.881,1.88,1.322,4.122,1.322,6.728c0,2.685-0.537,5.194-1.609,7.532
		c-1.074,2.34-2.645,4.37-4.715,6.096c-2.07,1.725-4.641,3.066-7.705,4.024C685.293,902.463,681.766,902.942,677.781,902.942z"/>
	<path fill="#9B9B9B" d="M729.76,902.942c-3.68,0-7.572-0.729-11.672-2.185c-4.102-1.456-7.648-3.411-10.637-5.865l8.738-12.19
		c5.213,3.835,9.891,5.75,14.031,5.75c2.07,0,3.545-0.287,4.428-0.862c0.881-0.575,1.322-1.438,1.322-2.587
		c0-0.766-0.307-1.438-0.92-2.013c-0.615-0.575-1.438-1.11-2.473-1.61c-1.035-0.498-2.205-0.978-3.508-1.438
		c-1.305-0.46-2.684-0.995-4.141-1.61c-1.688-0.689-3.393-1.513-5.117-2.472c-1.725-0.958-3.277-2.128-4.656-3.508
		c-1.381-1.38-2.514-2.971-3.393-4.772c-0.883-1.801-1.324-3.891-1.324-6.268c0-2.836,0.557-5.405,1.668-7.705
		s2.664-4.255,4.658-5.865c1.992-1.609,4.389-2.854,7.188-3.737c2.797-0.88,5.883-1.322,9.258-1.322
		c4.752,0,8.834,0.787,12.246,2.357c3.412,1.572,6.383,3.317,8.914,5.232l-8.74,11.73c-2.07-1.533-4.104-2.721-6.096-3.565
		c-1.994-0.843-3.871-1.265-5.635-1.265c-3.375,0-5.061,1.074-5.061,3.22c0,0.768,0.287,1.42,0.863,1.955
		c0.574,0.537,1.359,1.035,2.357,1.495c0.996,0.46,2.145,0.901,3.449,1.322c1.303,0.422,2.684,0.902,4.141,1.438
		c1.686,0.614,3.41,1.38,5.176,2.3c1.762,0.92,3.352,2.052,4.771,3.393c1.418,1.343,2.568,2.952,3.451,4.83
		c0.879,1.88,1.322,4.122,1.322,6.728c0,2.685-0.537,5.194-1.611,7.532c-1.074,2.34-2.645,4.37-4.715,6.096
		c-2.07,1.725-4.639,3.066-7.705,4.024S733.746,902.942,729.76,902.942z"/>
</g>
</svg>
